<svg width="25" height="25" viewBox="0 0 25 25" fill="none" xmlns="http://www.w3.org/2000/svg">
<path d="M2.78467 6.84938H22.7847M10.7847 11.8494V16.8494M14.7847 11.8494V16.8494M4.78467 6.84938H20.7847L19.2047 21.0694C19.1505 21.5587 18.9177 22.011 18.5509 22.3394C18.1841 22.6678 17.709 22.8494 17.2167 22.8494H8.35267C7.8603 22.8494 7.38523 22.6678 7.01842 22.3394C6.6516 22.011 6.41883 21.5587 6.36467 21.0694L4.78467 6.84938ZM8.12967 3.99637C8.29142 3.65334 8.54737 3.36337 8.86767 3.16029C9.18797 2.9572 9.55941 2.84937 9.93867 2.84937H15.6307C16.0101 2.84918 16.3817 2.95692 16.7022 3.16002C17.0227 3.36311 17.2788 3.65319 17.4407 3.99637L18.7847 6.84938H6.78467L8.12967 3.99637V3.99637Z" stroke="#FF4545" stroke-width="2" stroke-linecap="round" stroke-linejoin="round"/>
</svg>
